<?xml version="1.0" standalone="no"?>
<svg xmlns:xlink="http://www.w3.org/1999/xlink" id="wave" style="transform:rotate(180deg); transition: 0.3s" viewBox="0 0 1440 290" version="1.1" xmlns="http://www.w3.org/2000/svg"><defs><linearGradient id="sw-gradient-0" x1="0" x2="0" y1="1" y2="0"><stop stop-color="rgba(59, 191, 235, 1)" offset="0%"/><stop stop-color="rgba(225, 189, 228, 1)" offset="100%"/></linearGradient></defs><path style="transform:translate(0, 0px); opacity:1" fill="url(#sw-gradient-0)" d="M0,203L48,193.3C96,184,192,164,288,149.8C384,135,480,126,576,135.3C672,145,768,174,864,188.5C960,203,1056,203,1152,198.2C1248,193,1344,184,1440,193.3C1536,203,1632,232,1728,236.8C1824,242,1920,222,2016,222.3C2112,222,2208,242,2304,251.3C2400,261,2496,261,2592,236.8C2688,213,2784,164,2880,120.8C2976,77,3072,39,3168,62.8C3264,87,3360,174,3456,178.8C3552,184,3648,106,3744,106.3C3840,106,3936,184,4032,217.5C4128,251,4224,242,4320,203C4416,164,4512,97,4608,91.8C4704,87,4800,145,4896,183.7C4992,222,5088,242,5184,236.8C5280,232,5376,203,5472,188.5C5568,174,5664,174,5760,154.7C5856,135,5952,97,6048,101.5C6144,106,6240,155,6336,164.3C6432,174,6528,145,6624,116C6720,87,6816,58,6864,43.5L6912,29L6912,290L6864,290C6816,290,6720,290,6624,290C6528,290,6432,290,6336,290C6240,290,6144,290,6048,290C5952,290,5856,290,5760,290C5664,290,5568,290,5472,290C5376,290,5280,290,5184,290C5088,290,4992,290,4896,290C4800,290,4704,290,4608,290C4512,290,4416,290,4320,290C4224,290,4128,290,4032,290C3936,290,3840,290,3744,290C3648,290,3552,290,3456,290C3360,290,3264,290,3168,290C3072,290,2976,290,2880,290C2784,290,2688,290,2592,290C2496,290,2400,290,2304,290C2208,290,2112,290,2016,290C1920,290,1824,290,1728,290C1632,290,1536,290,1440,290C1344,290,1248,290,1152,290C1056,290,960,290,864,290C768,290,672,290,576,290C480,290,384,290,288,290C192,290,96,290,48,290L0,290Z"/><defs><linearGradient id="sw-gradient-1" x1="0" x2="0" y1="1" y2="0"><stop stop-color="rgba(131, 134, 247, 1)" offset="0%"/><stop stop-color="rgba(149, 237, 138, 1)" offset="100%"/></linearGradient></defs><path style="transform:translate(0, 50px); opacity:0.9" fill="url(#sw-gradient-1)" d="M0,58L48,91.8C96,126,192,193,288,212.7C384,232,480,203,576,188.5C672,174,768,174,864,154.7C960,135,1056,97,1152,91.8C1248,87,1344,116,1440,130.5C1536,145,1632,145,1728,154.7C1824,164,1920,184,2016,174C2112,164,2208,126,2304,106.3C2400,87,2496,87,2592,72.5C2688,58,2784,29,2880,43.5C2976,58,3072,116,3168,149.8C3264,184,3360,193,3456,169.2C3552,145,3648,87,3744,77.3C3840,68,3936,106,4032,145C4128,184,4224,222,4320,217.5C4416,213,4512,164,4608,159.5C4704,155,4800,193,4896,198.2C4992,203,5088,174,5184,135.3C5280,97,5376,48,5472,29C5568,10,5664,19,5760,38.7C5856,58,5952,87,6048,82.2C6144,77,6240,39,6336,48.3C6432,58,6528,116,6624,130.5C6720,145,6816,116,6864,101.5L6912,87L6912,290L6864,290C6816,290,6720,290,6624,290C6528,290,6432,290,6336,290C6240,290,6144,290,6048,290C5952,290,5856,290,5760,290C5664,290,5568,290,5472,290C5376,290,5280,290,5184,290C5088,290,4992,290,4896,290C4800,290,4704,290,4608,290C4512,290,4416,290,4320,290C4224,290,4128,290,4032,290C3936,290,3840,290,3744,290C3648,290,3552,290,3456,290C3360,290,3264,290,3168,290C3072,290,2976,290,2880,290C2784,290,2688,290,2592,290C2496,290,2400,290,2304,290C2208,290,2112,290,2016,290C1920,290,1824,290,1728,290C1632,290,1536,290,1440,290C1344,290,1248,290,1152,290C1056,290,960,290,864,290C768,290,672,290,576,290C480,290,384,290,288,290C192,290,96,290,48,290L0,290Z"/></svg>